<?xml version="1.0" encoding="utf-8"?>
<!-- Generator: Adobe Illustrator 18.0.0, SVG Export Plug-In . SVG Version: 6.00 Build 0)  -->
<!DOCTYPE svg PUBLIC "-//W3C//DTD SVG 1.1//EN" "http://www.w3.org/Graphics/SVG/1.1/DTD/svg11.dtd">
<svg version="1.1" id="Layer_1" xmlns="http://www.w3.org/2000/svg" xmlns:xlink="http://www.w3.org/1999/xlink" x="0px" y="0px"
	 viewBox="0 0 280 70" enable-background="new 0 0 280 70" xml:space="preserve">
<g>
	<g>
		<path fill="#FF9822" d="M63.7,42.7c-4-9.4-10.8-17.3-19.3-22.7C38.2,10.7,29,3.5,18.1,0c4.9,3.9,9.1,8.7,12.3,14.2
			c-10,0.1-19.3,3.1-27.1,8.3c4-1.1,8.3-1.6,12.6-1.6c1,0,2.2,0.1,3.3,0.1c-8.9,7-15.3,17.1-17.8,28.6c2.1-3,4.5-5.7,7.1-8.2
			C6.9,46.4,6,51.7,6,57.2c7.3,4.2,15.8,6.6,24.8,6.6c9,0,17.5-2.4,24.8-6.6c0-8.7-1.8-16.9-5-24.4C55.5,35.4,60,38.7,63.7,42.7z"/>
		<path opacity="0.2" d="M19.3,33.8c-3.9,2.1-7.5,4.6-10.7,7.7C8.4,41.9,6,48.4,6,57.2C8.1,47.9,12.8,40.3,19.3,33.8z"/>
		<path opacity="0.2" d="M13.9,25.8c4.5-1.8,9.3-3,14.1-3.4c-2.9-0.8-5.9-1.2-8.9-1.4C17.3,22.5,15.6,24.1,13.9,25.8z"/>
		<path opacity="0.2" d="M41.4,29.1c3.3,0.9,6.3,2.1,9.3,3.7c3.3,7.7,5,16,5,24.4C54,46.5,49.1,36.7,41.4,29.1z"/>
		<path opacity="0.2" d="M26.9,14.4c1.2-0.1,2.3-0.1,3.5-0.1c1.5,2.6,1,1.7,2.5,5C29.8,16.4,30,16.9,26.9,14.4z"/>
	</g>
	<g>
		<g>
			<g>
				<path fill="#333E48" d="M69.6,19.2l8.3-5.3v21.8c1.6-1.9,4.4-4.2,8.4-4.2c4.6,0,7,2.7,7,8.1v17.5h-8.2V43.4c0-3.7-0.5-4.8-2-4.8
					c-1.7,0-3.8,1.8-5.2,3.3v15.2h-8.3V19.2z"/>
				<path fill="#333E48" d="M111.6,41.5v-0.9c0-2.2-0.8-3.2-2.8-3.2c-4.4,0-8.3,3-8.3,3l-1.7-5.6c0,0,4.5-3.3,12-3.3
					c7,0,9,2.8,9,8.2v8.8c0,2.7,2.8,2.6,2.8,2.6l-2.3,6.4c-4.5,0.1-6.6-1.6-7.8-3.5c-0.7,1.1-2.8,3.8-7.5,3.8
					c-4.7,0-7.8-2.8-7.8-6.8C97.2,45.7,102.5,42.7,111.6,41.5z M111.6,49.4v-3.7c-4.4,0.7-6.1,2.4-6.1,4.5c0,1.4,0.8,1.9,1.8,1.9
					C108.8,52.1,110.2,51,111.6,49.4z"/>
				<path fill="#333E48" d="M132,58.3l0.6-1.4L123,32.2h8.4l5.1,15.7l4.9-15.7h8.2l-10,26.7c-1.9,5.1-7,10.6-13.9,11.2l-2.5-6.4
					C127,63.4,130.8,61.2,132,58.3z"/>
				<path fill="#333E48" d="M152.7,49c0,0,2.8,2.7,7.4,2.7c2.1,0,3-0.7,3-1.5c0-2.8-11.4-2.6-11.4-10.5c0-4,3-8.1,11.2-8.1
					c4.6,0,7.5,1.4,7.5,1.4l-1.5,6.6c0,0-2.5-1.9-6.3-1.9c-2,0-2.8,0.6-2.8,1.5c0,2.9,11.4,2.6,11.4,10.5c0,4.6-3.9,8.2-11.1,8.2
					c-5.6,0-9-2.2-9-2.2L152.7,49z"/>
				<path fill="#333E48" d="M177.6,37.9h-4v-4.5l4.4-1.4v-5.9l7.9-5.4v11.4h7.4v5.7h-7.4v10c0,2.3,0.8,3.2,2.3,3.2
					c0.9,0,2.5-0.5,4.6-2l2.3,5.8c0,0-3.8,2.8-8.9,2.8c-5.1,0-8.6-2.8-8.6-7.8V37.9z"/>
				<path fill="#333E48" d="M210.9,41.5v-0.9c0-2.2-0.8-3.2-2.8-3.2c-4.4,0-8.3,3-8.3,3l-1.7-5.6c0,0,4.5-3.3,12-3.3
					c7,0,9,2.8,9,8.2v8.8c0,2.7,2.8,2.6,2.8,2.6l-2.3,6.4c-4.5,0.1-6.6-1.6-7.8-3.5c-0.7,1.1-2.8,3.8-7.5,3.8
					c-4.7,0-7.8-2.8-7.8-6.8C196.5,45.7,201.8,42.7,210.9,41.5z M210.9,49.4v-3.7c-4.4,0.7-6.1,2.4-6.1,4.5c0,1.4,0.8,1.9,1.8,1.9
					C208.2,52.1,209.6,51,210.9,49.4z"/>
				<path fill="#333E48" d="M238.4,31.5c5.7,0,9.3,2.5,9.3,2.5l-2.7,5.9c0,0-2.6-2.2-5.6-2.2c-3.5,0-6.6,2.1-6.6,7.1
					c0,4.5,2.6,6.9,6.1,6.9c3.7,0,6.4-2.5,6.4-2.5l2.5,5.4c0,0-2.8,3.2-9.5,3.2c-8.7,0-13.9-5.6-13.9-12.5
					C224.3,37.9,230,31.5,238.4,31.5z"/>
				<path fill="#333E48" d="M251.6,18.6l8.3-4.6v26.2h0.9l7.2-8h10.3L267.9,43l10.7,14.1h-10l-7.8-10.9h-0.8v10.9h-8.3V18.6z"/>
			</g>
		</g>
	</g>
</g>
</svg>
