<?xml version="1.0" encoding="utf-8"?>
<!-- Generator: Adobe Illustrator 18.0.0, SVG Export Plug-In . SVG Version: 6.00 Build 0)  -->
<!DOCTYPE svg PUBLIC "-//W3C//DTD SVG 1.1//EN" "http://www.w3.org/Graphics/SVG/1.1/DTD/svg11.dtd">
<svg version="1.1" id="Layer_1" xmlns="http://www.w3.org/2000/svg" xmlns:xlink="http://www.w3.org/1999/xlink" x="0px" y="0px"
	 viewBox="0 0 115 36" enable-background="new 0 0 115 36" width="115" height="36" xml:space="preserve">
<g>
	<g>
		<path fill="#FF9E16" d="M27.2,18.2c-1.6-3.7-4.3-6.9-7.7-9c-2.4-3.7-6.1-6.6-10.4-8c2,1.6,3.6,3.5,4.9,5.7c-4,0-7.7,1.2-10.8,3.3
			c1.6-0.4,3.3-0.6,5-0.6c0.4,0,0.9,0,1.3,0C6,12.4,3.5,16.3,2.5,20.9c0.8-1.2,1.8-2.3,2.8-3.2c-0.7,2-1,4.1-1,6.3
			c2.9,1.7,6.3,2.6,9.9,2.6c3.6,0,7-1,9.9-2.6c0-3.4-0.7-6.7-2-9.7C24,15.3,25.7,16.6,27.2,18.2z"/>
		<path fill="#D87900" d="M9.6,14.6c-1.6,0.8-3,1.8-4.3,3c-0.1,0.2-1,2.8-1,6.3C5.1,20.2,7,17.2,9.6,14.6z"/>
		<path fill="#D87900" d="M7.5,11.5c1.8-0.7,3.7-1.2,5.6-1.3c-1.2-0.3-2.3-0.5-3.5-0.6C8.8,10.2,8.1,10.8,7.5,11.5z"/>
		<path fill="#D87900" d="M18.4,12.8c1.3,0.4,2.5,0.8,3.7,1.5c1.3,3.1,2,6.4,2,9.7C23.4,19.7,21.4,15.8,18.4,12.8z"/>
		<path fill="#D87900" d="M12.6,6.9c0.5,0,0.9-0.1,1.4-0.1c0.6,1,0.4,0.7,1,2C13.7,7.7,13.8,7.9,12.6,6.9z"/>
	</g>
	<g>
		<g>
			<g>
				<path fill="#f4f3f3" d="M29.6,8.9l3.3-2.1v8.6c0.6-0.8,1.8-1.7,3.4-1.7c1.8,0,2.8,1.1,2.8,3.2v7h-3.3v-5.4
					c0-1.5-0.2-1.9-0.8-1.9c-0.7,0-1.5,0.7-2.1,1.3v6h-3.3V8.9z"/>
				<path fill="#f4f3f3" d="M46.2,17.7v-0.4c0-0.9-0.3-1.3-1.1-1.3c-1.8,0-3.3,1.2-3.3,1.2L41.1,15c0,0,1.8-1.3,4.8-1.3
					c2.8,0,3.6,1.1,3.6,3.3v3.5c0,1.1,1.1,1,1.1,1L49.7,24c-1.8,0-2.6-0.6-3.1-1.4c-0.3,0.5-1.1,1.5-3,1.5c-1.9,0-3.1-1.1-3.1-2.7
					C40.5,19.3,42.6,18.2,46.2,17.7z M46.2,20.8v-1.5c-1.7,0.3-2.4,1-2.4,1.8c0,0.6,0.3,0.7,0.7,0.7C45.1,21.9,45.7,21.5,46.2,20.8z
					"/>
				<path fill="#f4f3f3" d="M54.4,24.4l0.2-0.6L50.8,14h3.4l2,6.3l1.9-6.3h3.3l-4,10.6c-0.8,2-2.8,4.2-5.5,4.4l-1-2.5
					C52.4,26.4,53.9,25.5,54.4,24.4z"/>
				<path fill="#f4f3f3" d="M62.6,20.7c0,0,1.1,1.1,2.9,1.1c0.8,0,1.2-0.3,1.2-0.6c0-1.1-4.5-1-4.5-4.2c0-1.6,1.2-3.2,4.4-3.2
					c1.8,0,3,0.5,3,0.5L69,16.9c0,0-1-0.7-2.5-0.7c-0.8,0-1.1,0.2-1.1,0.6c0,1.1,4.5,1,4.5,4.2c0,1.8-1.5,3.3-4.4,3.3
					c-2.2,0-3.6-0.9-3.6-0.9L62.6,20.7z"/>
				<path fill="#f4f3f3" d="M72.5,16.3h-1.6v-1.8l1.7-0.5v-2.3l3.1-2.2V14h2.9v2.3h-2.9v4c0,0.9,0.3,1.3,0.9,1.3
					c0.3,0,1-0.2,1.8-0.8l0.9,2.3c0,0-1.5,1.1-3.5,1.1c-2,0-3.4-1.1-3.4-3.1V16.3z"/>
				<path fill="#f4f3f3" d="M85.7,17.7v-0.4c0-0.9-0.3-1.3-1.1-1.3c-1.8,0-3.3,1.2-3.3,1.2L80.6,15c0,0,1.8-1.3,4.8-1.3
					c2.8,0,3.6,1.1,3.6,3.3v3.5c0,1.1,1.1,1,1.1,1L89.2,24c-1.8,0-2.6-0.6-3.1-1.4c-0.3,0.5-1.1,1.5-3,1.5c-1.9,0-3.1-1.1-3.1-2.7
					C80,19.3,82.1,18.2,85.7,17.7z M85.7,20.8v-1.5c-1.7,0.3-2.4,1-2.4,1.8c0,0.6,0.3,0.7,0.7,0.7C84.6,21.9,85.2,21.5,85.7,20.8z"
					/>
				<path fill="#f4f3f3" d="M96.6,13.7c2.3,0,3.7,1,3.7,1L99.2,17c0,0-1-0.9-2.2-0.9c-1.4,0-2.6,0.8-2.6,2.8c0,1.8,1,2.7,2.4,2.7
					c1.5,0,2.5-1,2.5-1l1,2.1c0,0-1.1,1.3-3.8,1.3c-3.4,0-5.5-2.2-5.5-5C91,16.3,93.3,13.7,96.6,13.7z"/>
				<path fill="#f4f3f3" d="M101.9,8.6l3.3-1.8v10.4h0.4l2.9-3.2h4.1l-4.2,4.3l4.2,5.6h-4l-3.1-4.3h-0.3v4.3h-3.3V8.6z"/>
			</g>
		</g>
	</g>
</g>
</svg>
