<?xml version="1.0" encoding="utf-8"?>
<!-- Generator: Adobe Illustrator 20.0.0, SVG Export Plug-In . SVG Version: 6.00 Build 0)  -->
<svg version="1.1" id="Layer_1" xmlns="http://www.w3.org/2000/svg" xmlns:xlink="http://www.w3.org/1999/xlink" x="0px" y="0px"
	 viewBox="0 0 168 56" enable-background="new 0 0 168 56" xml:space="preserve">
<g>
	<path fill="#FFFFFF" d="M37.9,28.2c0-3.9,3.2-5.8,3.3-5.9c-1.8-2.7-4.7-3-5.7-3.1c-2.4-0.3-4.7,1.4-5.9,1.4c-1.2,0-3.1-1.4-5.1-1.4
		c-2.6,0-5,1.5-6.4,3.9C15.4,28,17.4,35,20.1,38.8c1.3,1.9,2.9,4,4.9,3.9c2-0.1,2.7-1.3,5.1-1.3c2.4,0,3,1.3,5.1,1.2
		c2.1,0,3.4-1.9,4.7-3.8c1.5-2.2,2.1-4.3,2.2-4.4C42,34.5,37.9,32.9,37.9,28.2z"/>
	<path fill="#FFFFFF" d="M34,16.8c1.1-1.3,1.8-3.1,1.6-5c-1.5,0.1-3.5,1.1-4.6,2.4c-1,1.1-1.8,3-1.6,4.8
		C31.1,19.1,32.9,18.1,34,16.8z"/>
	<g>
		<path fill="#FFFFFF" d="M66.4,42.4h-2.8l-1.5-4.7h-5.2l-1.4,4.7h-2.7L58,26.3h3.2L66.4,42.4z M61.7,35.7l-1.4-4.2
			c-0.1-0.4-0.4-1.4-0.8-3h0c-0.2,0.7-0.4,1.7-0.8,3l-1.3,4.2H61.7z"/>
		<path fill="#FFFFFF" d="M79.7,36.5c0,2-0.5,3.5-1.6,4.7c-1,1-2.2,1.5-3.6,1.5c-1.5,0-2.6-0.5-3.3-1.6v6.1h-2.6V34.6
			c0-1.2,0-2.5-0.1-3.8h2.3l0.1,1.8h0c0.9-1.4,2.2-2.1,3.9-2.1c1.4,0,2.5,0.5,3.4,1.6C79.3,33.3,79.7,34.7,79.7,36.5z M77.1,36.6
			c0-1.1-0.3-2.1-0.8-2.8c-0.6-0.8-1.3-1.1-2.2-1.1c-0.6,0-1.2,0.2-1.7,0.6c-0.5,0.4-0.9,1-1,1.7c-0.1,0.3-0.1,0.6-0.1,0.8v1.9
			c0,0.8,0.3,1.6,0.8,2.1c0.5,0.6,1.2,0.9,2,0.9c1,0,1.7-0.4,2.3-1.1C76.8,38.8,77.1,37.8,77.1,36.6z"/>
		<path fill="#FFFFFF" d="M93.1,36.5c0,2-0.5,3.5-1.6,4.7c-1,1-2.2,1.5-3.6,1.5c-1.5,0-2.6-0.5-3.3-1.6v6.1H82V34.6
			c0-1.2,0-2.5-0.1-3.8h2.3l0.1,1.8h0c0.9-1.4,2.2-2.1,3.9-2.1c1.4,0,2.5,0.5,3.4,1.6C92.6,33.3,93.1,34.7,93.1,36.5z M90.5,36.6
			c0-1.1-0.3-2.1-0.8-2.8c-0.6-0.8-1.3-1.1-2.2-1.1c-0.6,0-1.2,0.2-1.7,0.6c-0.5,0.4-0.9,1-1,1.7c-0.1,0.3-0.1,0.6-0.1,0.8v1.9
			c0,0.8,0.3,1.6,0.8,2.1c0.5,0.6,1.2,0.9,2,0.9c1,0,1.7-0.4,2.3-1.1C90.2,38.8,90.5,37.8,90.5,36.6z"/>
		<path fill="#FFFFFF" d="M108,37.9c0,1.4-0.5,2.5-1.4,3.4c-1,0.9-2.5,1.4-4.4,1.4c-1.7,0-3.1-0.3-4.2-1l0.6-2.2
			c1.1,0.7,2.4,1,3.7,1c1,0,1.7-0.2,2.3-0.7c0.5-0.4,0.8-1,0.8-1.8c0-0.7-0.2-1.2-0.7-1.7c-0.4-0.4-1.2-0.9-2.2-1.2
			c-2.8-1.1-4.2-2.6-4.2-4.6c0-1.3,0.5-2.4,1.5-3.3c1-0.8,2.3-1.3,4-1.3c1.5,0,2.7,0.3,3.7,0.8l-0.6,2.1c-0.9-0.5-1.9-0.7-3.1-0.7
			c-0.9,0-1.6,0.2-2.1,0.7c-0.4,0.4-0.6,0.9-0.6,1.5c0,0.6,0.2,1.2,0.7,1.6c0.4,0.4,1.2,0.8,2.3,1.2c1.4,0.6,2.4,1.2,3.1,2
			C107.7,35.9,108,36.8,108,37.9z"/>
		<path fill="#FFFFFF" d="M116.6,32.8h-2.8v5.6c0,1.4,0.5,2.2,1.5,2.2c0.5,0,0.8,0,1.1-0.1l0.1,2c-0.5,0.2-1.2,0.3-2,0.3
			c-1,0-1.8-0.3-2.4-0.9c-0.6-0.6-0.9-1.7-0.9-3.1v-5.9h-1.7v-1.9h1.7v-2.1l2.5-0.8v2.9h2.8V32.8z"/>
		<path fill="#FFFFFF" d="M129.4,36.5c0,1.8-0.5,3.3-1.5,4.4c-1.1,1.2-2.5,1.8-4.3,1.8c-1.7,0-3.1-0.6-4.1-1.7
			c-1-1.1-1.5-2.6-1.5-4.3c0-1.8,0.5-3.3,1.6-4.4c1-1.1,2.5-1.7,4.2-1.7c1.7,0,3.1,0.6,4.1,1.7C128.9,33.4,129.4,34.8,129.4,36.5z
			 M126.8,36.6c0-1.1-0.2-2-0.7-2.7c-0.5-0.9-1.3-1.4-2.3-1.4c-1,0-1.8,0.5-2.4,1.4c-0.5,0.8-0.7,1.7-0.7,2.8c0,1.1,0.2,2,0.7,2.7
			c0.6,0.9,1.3,1.4,2.3,1.4c1,0,1.8-0.5,2.3-1.4C126.5,38.6,126.8,37.7,126.8,36.6z"/>
		<path fill="#FFFFFF" d="M137.8,33.1c-0.3,0-0.5-0.1-0.8-0.1c-0.9,0-1.6,0.3-2.1,1c-0.4,0.6-0.6,1.4-0.6,2.3v6.1h-2.6v-8
			c0-1.3,0-2.6-0.1-3.7h2.3L134,33h0.1c0.3-0.8,0.7-1.4,1.3-1.8c0.6-0.4,1.2-0.6,1.9-0.6c0.2,0,0.5,0,0.6,0L137.8,33.1L137.8,33.1z"
			/>
		<path fill="#FFFFFF" d="M149.4,36.1c0,0.5,0,0.9-0.1,1.2h-7.8c0,1.1,0.4,2,1.1,2.6c0.7,0.5,1.5,0.8,2.5,0.8c1.1,0,2.2-0.2,3.1-0.5
			l0.4,1.8c-1.1,0.5-2.4,0.7-3.9,0.7c-1.8,0-3.2-0.5-4.2-1.6c-1-1.1-1.5-2.5-1.5-4.3c0-1.8,0.5-3.2,1.4-4.4c1-1.2,2.4-1.9,4.1-1.9
			c1.7,0,2.9,0.6,3.8,1.9C149.1,33.4,149.4,34.6,149.4,36.1z M146.9,35.4c0-0.8-0.2-1.4-0.5-2c-0.4-0.7-1.1-1.1-2.1-1.1
			c-0.8,0-1.5,0.4-2.1,1.1c-0.4,0.6-0.7,1.2-0.8,2L146.9,35.4L146.9,35.4z"/>
	</g>
	<g>
		<g>
			<path fill="#FFFFFF" d="M56.1,20.6c-0.7,0-1.3,0-1.9-0.1v-7.8c0.7-0.1,1.4-0.2,2.2-0.2c3,0,4.3,1.5,4.3,3.8
				C60.8,19.1,59.2,20.6,56.1,20.6z M56.6,13.6c-0.4,0-0.7,0-1,0.1v5.9c0.2,0,0.4,0,0.9,0c1.9,0,3-1.1,3-3.2
				C59.5,14.6,58.5,13.6,56.6,13.6z"/>
			<path fill="#FFFFFF" d="M65,20.7c-1.7,0-2.8-1.2-2.8-2.9c0-1.8,1.1-3,2.8-3c1.6,0,2.8,1.2,2.8,2.9C67.9,19.4,66.8,20.7,65,20.7z
				 M65.1,15.6c-0.9,0-1.5,0.9-1.5,2.1c0,1.2,0.6,2,1.5,2c0.9,0,1.5-0.9,1.5-2.1C66.6,16.5,66,15.6,65.1,15.6z"/>
			<path fill="#FFFFFF" d="M77.4,14.8l-1.8,5.7h-1.2l-0.7-2.5c-0.2-0.6-0.3-1.2-0.5-1.8h0c-0.1,0.6-0.3,1.2-0.5,1.8L72,20.5h-1.2
				l-1.7-5.7h1.3l0.6,2.7c0.2,0.6,0.3,1.3,0.4,1.8h0c0.1-0.5,0.2-1.1,0.5-1.8l0.8-2.7h1l0.8,2.7c0.2,0.6,0.3,1.3,0.5,1.9h0
				c0.1-0.6,0.2-1.2,0.4-1.9l0.7-2.7L77.4,14.8L77.4,14.8z"/>
			<path fill="#FFFFFF" d="M84,20.5h-1.3v-3.3c0-1-0.4-1.5-1.2-1.5c-0.8,0-1.3,0.6-1.3,1.4v3.4H79v-4.1c0-0.5,0-1,0-1.6h1.1l0.1,0.9
				h0c0.3-0.6,1-1,1.8-1c1.2,0,2,0.9,2,2.4L84,20.5L84,20.5z"/>
			<path fill="#FFFFFF" d="M87.5,20.5h-1.3v-8.3h1.3V20.5z"/>
			<path fill="#FFFFFF" d="M92.1,20.7c-1.7,0-2.8-1.2-2.8-2.9c0-1.8,1.1-3,2.8-3c1.6,0,2.8,1.2,2.8,2.9C95,19.4,93.8,20.7,92.1,20.7
				z M92.2,15.6c-0.9,0-1.5,0.9-1.5,2.1c0,1.2,0.6,2,1.5,2c0.9,0,1.5-0.9,1.5-2.1C93.7,16.5,93.1,15.6,92.2,15.6z"/>
			<path fill="#FFFFFF" d="M100,20.5l-0.1-0.7h0c-0.4,0.5-1,0.8-1.7,0.8c-1,0-1.8-0.7-1.8-1.7c0-1.4,1.2-2.1,3.3-2.1v-0.1
				c0-0.8-0.4-1.1-1.2-1.1c-0.6,0-1.1,0.1-1.5,0.4l-0.3-0.8c0.5-0.3,1.2-0.5,2-0.5c1.5,0,2.2,0.8,2.2,2.4v2.1c0,0.6,0,1,0.1,1.4
				L100,20.5L100,20.5z M99.8,17.7c-1.4,0-2.1,0.3-2.1,1.2c0,0.6,0.4,0.9,0.9,0.9c0.6,0,1.2-0.5,1.2-1.2V17.7z"/>
			<path fill="#FFFFFF" d="M107.2,20.5l-0.1-0.9h0c-0.4,0.7-1,1-1.8,1c-1.4,0-2.4-1.2-2.4-2.9c0-1.8,1.1-3,2.5-3
				c0.8,0,1.3,0.3,1.6,0.8h0v-3.3h1.3V19c0,0.6,0,1.1,0,1.5H107.2z M107,17.2c0-0.8-0.5-1.5-1.3-1.5c-0.9,0-1.5,0.8-1.5,2
				c0,1.2,0.6,1.9,1.5,1.9c0.8,0,1.4-0.7,1.4-1.5V17.2z"/>
			<path fill="#FFFFFF" d="M116.4,20.7c-1.7,0-2.8-1.2-2.8-2.9c0-1.8,1.1-3,2.8-3c1.6,0,2.8,1.2,2.8,2.9
				C119.2,19.4,118.1,20.7,116.4,20.7z M116.4,15.6c-0.9,0-1.5,0.9-1.5,2.1c0,1.2,0.6,2,1.5,2c0.9,0,1.5-0.9,1.5-2.1
				C117.9,16.5,117.3,15.6,116.4,15.6z"/>
			<path fill="#FFFFFF" d="M126,20.5h-1.3v-3.3c0-1-0.4-1.5-1.2-1.5c-0.8,0-1.3,0.6-1.3,1.4v3.4h-1.3v-4.1c0-0.5,0-1,0-1.6h1.1
				l0.1,0.9h0c0.3-0.6,1-1,1.8-1c1.2,0,2,0.9,2,2.4V20.5z"/>
			<path fill="#FFFFFF" d="M134.6,15.8h-1.4v2.8c0,0.7,0.2,1.1,0.7,1.1c0.2,0,0.4,0,0.6-0.1l0,1c-0.2,0.1-0.6,0.1-1,0.1
				c-1,0-1.6-0.6-1.6-2v-2.9h-0.8v-1h0.8v-1l1.2-0.4v1.4h1.4V15.8z"/>
			<path fill="#FFFFFF" d="M141.3,20.5H140v-3.3c0-1-0.4-1.5-1.2-1.5c-0.7,0-1.3,0.4-1.3,1.4v3.4h-1.3v-8.3h1.3v3.4h0
				c0.4-0.6,1-0.9,1.7-0.9c1.2,0,1.9,0.9,1.9,2.4V20.5z"/>
			<path fill="#FFFFFF" d="M148.2,18h-3.8c0,1.1,0.7,1.7,1.8,1.7c0.6,0,1.1-0.1,1.5-0.3l0.2,0.9c-0.5,0.2-1.2,0.4-1.9,0.4
				c-1.8,0-2.8-1.1-2.8-2.9c0-1.8,1.1-3.1,2.7-3.1c1.5,0,2.4,1.1,2.4,2.7C148.3,17.6,148.2,17.8,148.2,18z M147,17.1
				c0-0.9-0.4-1.5-1.3-1.5c-0.7,0-1.3,0.6-1.4,1.5H147z"/>
		</g>
	</g>
</g>
</svg>
