<?xml version="1.0" encoding="utf-8"?>
<!-- Generator: Adobe Illustrator 20.0.0, SVG Export Plug-In . SVG Version: 6.00 Build 0)  -->
<svg version="1.1" id="Layer_1" xmlns="http://www.w3.org/2000/svg" xmlns:xlink="http://www.w3.org/1999/xlink" x="0px" y="0px"
	 viewBox="0 0 168 56" enable-background="new 0 0 168 56" xml:space="preserve">
<g>
	<g>
		<g>
			<g>
				<path fill="#FFFFFF" d="M111.6,40.7l-1.2,1.2c-0.3,0.2-0.6,0.3-0.8,0.5c-0.9,0.4-1.7,0.5-2.5,0.5c-0.8,0-2.1-0.1-3.4-1
					c-1.8-1.3-2.6-3.5-2.6-5.4c0-4,3.2-5.9,5.9-5.9c0.9,0,1.9,0.2,2.6,0.7c1.3,0.8,1.6,2,1.8,2.5l-6,2.4l-2,0.2
					c0.6,3.3,2.8,5.2,5.3,5.2C109.8,41.5,110.7,41.1,111.6,40.7C111.6,40.7,111.7,40.6,111.6,40.7z M108,34.2
					c0.5-0.2,0.7-0.3,0.7-0.7c0-1-1.2-2.2-2.5-2.2c-1,0-3,0.8-3,3.6c0,0.4,0.1,0.9,0.1,1.4L108,34.2z"/>
				<path fill="#FFFFFF" d="M99,40.5c0,1,0.2,1.2,1,1.2c0.4,0.1,0.9,0.1,1.3,0.1l-0.9,0.6h-4.5c0.6-0.8,0.7-0.8,0.7-1.4v-0.6l0-15.3
					h-2l1.9-0.9h3.7c-0.8,0.5-1,0.7-1.1,1.6L99,40.5z"/>
				<path fill="#FFFFFF" d="M92,31.7c0.6,0.5,1.8,1.5,1.8,3.5c0,1.9-1.1,2.8-2.2,3.6c-0.3,0.3-0.7,0.7-0.7,1.3
					c0,0.6,0.4,0.9,0.7,1.1l0.9,0.7c1.1,1,2.2,1.8,2.2,3.6c0,2.4-2.3,4.9-6.8,4.9c-3.7,0-5.5-1.8-5.5-3.7c0-0.9,0.5-2.2,2-3.1
					c1.6-1,3.7-1.1,4.9-1.2c-0.4-0.5-0.8-1-0.8-1.7c0-0.4,0.1-0.7,0.3-1c-0.3,0-0.6,0.1-0.8,0.1c-2.7,0-4.3-2-4.3-4
					c0-1.2,0.5-2.5,1.6-3.4c1.5-1.2,3.2-1.4,4.6-1.4h5.3l-1.6,0.9H92z M90.1,43.1c-0.2,0-0.3,0-0.6,0c-0.2,0-1.6,0.1-2.7,0.4
					c-0.6,0.2-2.2,0.8-2.2,2.6c0,1.8,1.8,3.1,4.5,3.1c2.5,0,3.8-1.2,3.8-2.8C92.9,45.2,92.1,44.5,90.1,43.1z M90.9,38.2
					c0.6-0.6,0.6-1.4,0.6-1.9c0-1.8-1.1-4.7-3.2-4.7c-0.7,0-1.4,0.3-1.8,0.9c-0.4,0.5-0.6,1.2-0.6,1.9c0,1.7,1,4.6,3.2,4.6
					C89.8,39,90.5,38.6,90.9,38.2z"/>
				<path fill="#FFFFFF" d="M76.1,42.8c-4.1,0-6.3-3.2-6.3-6.1c0-3.4,2.7-6.2,6.6-6.2c3.8,0,6.1,3,6.1,6.1
					C82.6,39.5,80.2,42.8,76.1,42.8z M79.3,40.7c0.6-0.8,0.8-1.8,0.8-2.8c0-2.3-1.1-6.6-4.3-6.6c-0.8,0-1.7,0.3-2.3,0.9
					c-1,0.9-1.2,2-1.2,3.1c0,2.5,1.3,6.7,4.4,6.7C77.6,42,78.7,41.5,79.3,40.7z"/>
				<path fill="#FFFFFF" d="M62.4,42.8c-4.1,0-6.3-3.2-6.3-6.1c0-3.4,2.7-6.2,6.6-6.2c3.8,0,6.1,3,6.1,6.1
					C68.9,39.5,66.6,42.8,62.4,42.8z M65.6,40.7c0.6-0.8,0.8-1.8,0.8-2.8c0-2.3-1.1-6.6-4.3-6.6c-0.8,0-1.7,0.3-2.3,0.9
					c-1,0.9-1.2,2-1.2,3.1c0,2.5,1.3,6.7,4.4,6.7C64,42,65,41.5,65.6,40.7z"/>
				<path fill="#FFFFFF" d="M54.5,41.9l-3.4,0.8c-1.4,0.2-2.6,0.4-4,0.4c-6.6,0-9.2-4.9-9.2-8.7c0-4.7,3.6-9,9.7-9
					c1.3,0,2.5,0.2,3.7,0.5c1.8,0.5,2.6,1.1,3.2,1.5l-2,1.9l-0.8,0.2l0.6-1c-0.8-0.8-2.3-2.3-5.2-2.3c-3.8,0-6.7,2.9-6.7,7.1
					c0,4.5,3.3,8.8,8.5,8.8c1.5,0,2.3-0.3,3.1-0.6v-3.9l-3.6,0.2l1.9-1h5.1l-0.6,0.6c-0.2,0.1-0.2,0.2-0.2,0.4c0,0.2,0,0.9,0,1.2
					V41.9z"/>
			</g>
			<g>
				<path fill="#FFFFFF" d="M119,40.8v6.5h-1.3V30.7h1.3v1.9c0.8-1.2,2.4-2.2,4.2-2.2c3.2,0,5.4,2.4,5.4,6.3c0,3.8-2.2,6.3-5.4,6.3
					C121.5,43.1,120,42.2,119,40.8z M127.2,36.7c0-2.9-1.5-5.1-4.2-5.1c-1.7,0-3.3,1.3-4,2.5v5.3c0.7,1.1,2.3,2.5,4,2.5
					C125.7,41.9,127.2,39.6,127.2,36.7z"/>
				<path fill="#FFFFFF" d="M130.4,42.8V26.1h1.3v16.6H130.4z"/>
				<path fill="#FFFFFF" d="M146.2,46.3c0.3,0.1,0.8,0.2,1.1,0.2c0.8,0,1.3-0.3,1.8-1.5l0.9-2.1L145,30.7h1.4l4.4,10.5l4.3-10.5h1.5
					l-6.2,14.7c-0.6,1.5-1.7,2.2-3.1,2.2c-0.4,0-1-0.1-1.3-0.2L146.2,46.3z"/>
				<path fill="#FFFFFF" d="M142.4,42.7c-0.1-0.4-0.2-0.8-0.2-1.1c0-0.3-0.1-0.6-0.1-0.9c-0.4,0.7-1.1,1.2-1.9,1.6
					c-0.8,0.4-1.6,0.6-2.6,0.6c-1.3,0-2.2-0.3-2.9-0.9c-0.7-0.6-1-1.5-1-2.6c0-1.1,0.5-2,1.5-2.6c1-0.7,2.3-1,4-1h3v-1.5
					c0-0.9-0.3-1.5-0.9-2c-0.6-0.5-1.4-0.7-2.5-0.7c-1,0-1.8,0.2-2.4,0.7c-0.6,0.5-0.9,1-0.9,1.7h-1.3l0-0.1c0-0.9,0.4-1.7,1.3-2.4
					c0.9-0.7,2-1,3.5-1c1.4,0,2.6,0.3,3.4,1c0.9,0.7,1.3,1.6,1.3,2.9v5.9c0,0.4,0,0.8,0.1,1.2c0.1,0.4,0.1,0.8,0.3,1.2H142.4z
					 M137.8,41.8c1.1,0,1.9-0.2,2.7-0.7c0.8-0.5,1.4-1.1,1.6-1.9v-2.3h-3c-1.2,0-2.1,0.3-2.9,0.8c-0.8,0.5-1.1,1.1-1.1,1.9
					c0,0.7,0.2,1.2,0.7,1.7C136.3,41.6,137,41.8,137.8,41.8z"/>
			</g>
		</g>
		<g>
			<polygon fill="none" points="21,36 25.1,31.9 25.1,31.9 21,36 7.7,22.7 7.7,22.7 21,36 7.6,49.4 7.6,49.4 21,36 25.1,40.2 
				25.1,40.2 			"/>
			
				<linearGradient id="SVGID_1_" gradientUnits="userSpaceOnUse" x1="528.9614" y1="-401.718" x2="511.405" y2="-412.7054" gradientTransform="matrix(0.7071 0.7071 -0.7071 0.7071 -639.9321 -55.007)">
				<stop  offset="0" style="stop-color:#D6E59C"/>
				<stop  offset="0.3264" style="stop-color:#93D0A3"/>
				<stop  offset="1" style="stop-color:#00A2B4"/>
			</linearGradient>
			<path fill="url(#SVGID_1_)" d="M25.1,31.9L8.9,22.9c-0.5-0.3-0.9-0.3-1.2-0.2L21,36L25.1,31.9z"/>
			
				<linearGradient id="SVGID_2_" gradientUnits="userSpaceOnUse" x1="518.7538" y1="-411.1039" x2="541.5164" y2="-405.1534" gradientTransform="matrix(0.7071 0.7071 -0.7071 0.7071 -639.9321 -55.007)">
				<stop  offset="0" style="stop-color:#EC257B"/>
				<stop  offset="0.6468" style="stop-color:#F7A776"/>
				<stop  offset="1" style="stop-color:#FDEA73"/>
			</linearGradient>
			<path fill="url(#SVGID_2_)" d="M25.1,40.2l5.5-3c1.1-0.6,1.1-1.6,0-2.2l-5.6-3.1L21,36L25.1,40.2z"/>
			
				<linearGradient id="SVGID_3_" gradientUnits="userSpaceOnUse" x1="531.4611" y1="-393.3836" x2="506.7779" y2="-407.9057" gradientTransform="matrix(0.7071 0.7071 -0.7071 0.7071 -639.9321 -55.007)">
				<stop  offset="0" style="stop-color:#88CEBC"/>
				<stop  offset="0.3082" style="stop-color:#5DA2B2"/>
				<stop  offset="0.7768" style="stop-color:#2165A3"/>
				<stop  offset="1" style="stop-color:#0A4D9D"/>
			</linearGradient>
			<path fill="url(#SVGID_3_)" d="M7.7,22.7c-0.5,0.2-0.8,0.7-0.8,1.4l0,23.8c0,0.7,0.3,1.2,0.8,1.4L21,36L7.7,22.7z"/>
			
				<linearGradient id="SVGID_4_" gradientUnits="userSpaceOnUse" x1="540.4225" y1="-404.9139" x2="525.2245" y2="-384.8913" gradientTransform="matrix(0.7071 0.7071 -0.7071 0.7071 -639.9321 -55.007)">
				<stop  offset="0" style="stop-color:#EF492B"/>
				<stop  offset="5.117297e-03" style="stop-color:#EE492C"/>
				<stop  offset="0.6888" style="stop-color:#9A4F7F"/>
				<stop  offset="1" style="stop-color:#7851A0"/>
			</linearGradient>
			<path fill="url(#SVGID_4_)" d="M7.6,49.4c0.3,0.1,0.8,0.1,1.3-0.2l16.3-8.9L21,36L7.6,49.4z"/>
		</g>
		<g>
			<g>
				<path fill="#FFFFFF" d="M37.9,12.5c0-2.6,1.9-4.2,4.3-4.2c1.6,0,2.6,0.8,3.3,1.7l-1.2,0.7C43.8,10,43,9.5,42.1,9.5
					c-1.6,0-2.8,1.2-2.8,2.9c0,1.7,1.2,2.9,2.8,2.9c0.8,0,1.6-0.4,1.9-0.7v-1.3h-2.4v-1.3h3.8v3c-0.8,0.9-1.9,1.5-3.3,1.5
					C39.8,16.7,37.9,15,37.9,12.5z"/>
				<path fill="#FFFFFF" d="M47.2,16.5V8.4h5.6v1.3h-4.1v2.1h4.1V13h-4.1v2.3h4.1v1.3H47.2z"/>
				<path fill="#FFFFFF" d="M56.7,16.5V9.6h-2.5V8.4h6.3v1.3h-2.5v6.9H56.7z"/>
				<path fill="#FFFFFF" d="M65.6,16.5V8.4H67v8.1H65.6z"/>
				<path fill="#FFFFFF" d="M71,16.5V9.6h-2.5V8.4h6.3v1.3h-2.5v6.9H71z"/>
				<path fill="#FFFFFF" d="M79.5,12.5c0-2.4,1.7-4.2,4.2-4.2c2.4,0,4.2,1.8,4.2,4.2c0,2.4-1.7,4.2-4.2,4.2
					C81.2,16.7,79.5,14.9,79.5,12.5z M86.3,12.5c0-1.7-1.1-2.9-2.7-2.9c-1.6,0-2.7,1.3-2.7,2.9c0,1.7,1,2.9,2.7,2.9
					C85.2,15.4,86.3,14.1,86.3,12.5z"/>
				<path fill="#FFFFFF" d="M95.1,16.5l-4.2-5.8v5.8h-1.4V8.4h1.5L95,14V8.4h1.4v8.1H95.1z"/>
			</g>
		</g>
	</g>
</g>
</svg>
