<?xml version="1.0" encoding="utf-8"?>
<!-- Generator: Adobe Illustrator 19.0.0, SVG Export Plug-In . SVG Version: 6.00 Build 0)  -->
<!DOCTYPE svg PUBLIC "-//W3C//DTD SVG 1.1//EN" "http://www.w3.org/Graphics/SVG/1.1/DTD/svg11.dtd">
<svg version="1.1" id="Layer_1" xmlns="http://www.w3.org/2000/svg" xmlns:xlink="http://www.w3.org/1999/xlink" x="0px" y="0px"
	 viewBox="0 0 400 104.3" enable-background="new 0 0 400 104.3" xml:space="preserve">
<g id="XMLID_2288_">
	<g id="XMLID_2411_">
		<path id="XMLID_2416_" fill="#FFA726" d="M91.1,63.2c-5.7-13.4-15.4-24.7-27.6-32.4C54.8,17.4,41.6,7.2,26,2.2
			c7.1,5.6,13,12.5,17.6,20.3C29.3,22.6,16,26.9,4.9,34.3c5.7-1.5,11.8-2.3,18-2.3c1.5,0,3.2,0.1,4.7,0.2C14.9,42.2,5.7,56.6,2.3,73
			c3-4.3,6.4-8.1,10.2-11.6c-2.4,7.1-3.7,14.6-3.7,22.5c10.4,6,22.5,9.5,35.4,9.5c12.9,0,25-3.5,35.4-9.5c0-12.4-2.5-24.1-7.1-34.8
			C79.5,52.7,85.8,57.5,91.1,63.2z"/>
		<path id="XMLID_2415_" fill="#F57C00" d="M27.8,50.4c-5.6,3-10.7,6.6-15.3,10.9c-0.2,0.6-3.7,10-3.7,22.5
			C11.8,70.6,18.5,59.7,27.8,50.4z"/>
		<path id="XMLID_2414_" fill="#F57C00" d="M20.1,39c6.4-2.6,13.2-4.2,20.2-4.8c-4.2-1.1-8.4-1.7-12.7-2
			C24.9,34.3,22.4,36.6,20.1,39z"/>
		<path id="XMLID_2413_" fill="#F57C00" d="M59.2,43.8c4.6,1.3,9,3,13.2,5.2c4.7,11,7.1,22.9,7.1,34.8
			C77.3,68.6,70.3,54.5,59.2,43.8z"/>
		<path id="XMLID_2412_" fill="#F57C00" d="M38.6,22.7c1.6-0.1,3.3-0.2,5-0.2c2.1,3.7,1.5,2.5,3.5,7.2C42.7,25.6,43,26.3,38.6,22.7z
			"/>
	</g>
	<g id="XMLID_2293_">
		<g id="XMLID_2294_">
			<g id="XMLID_2295_">
				<path id="XMLID_2409_" fill="#FFFFFF" d="M99.6,29.6l11.8-7.5v31.1c2.3-2.7,6.3-6.1,12-6.1c6.6,0,9.9,3.8,9.9,11.5v25h-11.7
					V64.2c0-5.3-0.8-6.8-2.9-6.8c-2.5,0-5.4,2.6-7.4,4.7v21.7H99.6V29.6z"/>
				<path id="XMLID_2406_" fill="#FFFFFF" d="M159.4,61.4V60c0-3.1-1.2-4.5-4-4.5c-6.3,0-11.8,4.4-11.8,4.4l-2.5-8
					c0,0,6.4-4.7,17.2-4.7c9.9,0,12.9,4,12.9,11.7v12.5c0,3.8,4,3.7,4,3.7l-3.3,9.1c-6.4,0.1-9.5-2.3-11.1-5.1
					c-0.9,1.6-4,5.4-10.7,5.4c-6.8,0-11.2-4-11.2-9.6C138.9,67.3,146.5,63.1,159.4,61.4z M159.4,72.7v-5.3c-6.2,0.9-8.7,3.4-8.7,6.5
					c0,2,1.1,2.6,2.6,2.6C155.5,76.5,157.5,75,159.4,72.7z"/>
				<path id="XMLID_2366_" fill="#FFFFFF" d="M188.6,85.4l0.9-2l-13.8-35.3h12l7.2,22.5l7-22.5h11.7l-14.2,38.1
					c-2.7,7.3-10,15.2-19.8,15.9l-3.5-9.1C181.5,92.6,186.9,89.5,188.6,85.4z"/>
				<path id="XMLID_2364_" fill="#FFFFFF" d="M218.1,72.1c0,0,4,3.8,10.6,3.8c3,0,4.3-0.9,4.3-2.2c0-4-16.2-3.7-16.2-15
					c0-5.8,4.3-11.6,15.9-11.6c6.6,0,10.7,1.9,10.7,1.9l-2.2,9.4c0,0-3.6-2.6-8.9-2.6c-2.8,0-4,0.9-4,2.1c0,4.1,16.2,3.7,16.2,14.9
					c0,6.5-5.5,11.7-15.9,11.7c-8,0-12.9-3.1-12.9-3.1L218.1,72.1z"/>
				<path id="XMLID_2362_" fill="#FFFFFF" d="M253.6,56.2h-5.8v-6.4l6.2-1.9v-8.4l11.3-7.8v16.3h10.6v8.2h-10.5v14.3
					c0,3.3,1.1,4.6,3.3,4.6c1.2,0,3.5-0.8,6.5-2.9l3.3,8.3c0,0-5.4,4-12.7,4c-7.2,0-12.2-4-12.2-11.2V56.2z"/>
				<path id="XMLID_2355_" fill="#FFFFFF" d="M301.2,61.4V60c0-3.1-1.2-4.5-4-4.5c-6.3,0-11.8,4.4-11.8,4.4l-2.5-8
					c0,0,6.4-4.7,17.2-4.7c9.9,0,12.9,4,12.9,11.7v12.5c0,3.8,4,3.7,4,3.7l-3.3,9.1c-6.4,0.1-9.5-2.3-11.1-5.1
					c-0.9,1.6-4,5.4-10.7,5.4c-6.8,0-11.2-4-11.2-9.6C280.6,67.3,288.2,63.1,301.2,61.4z M301.2,72.7v-5.3c-6.2,0.9-8.7,3.4-8.7,6.5
					c0,2,1.1,2.6,2.6,2.6C297.3,76.5,299.3,75,301.2,72.7z"/>
				<path id="XMLID_2349_" fill="#FFFFFF" d="M340.4,47.1c8.2,0,13.3,3.5,13.3,3.5l-3.9,8.4c0,0-3.7-3.2-8-3.2c-5,0-9.5,3-9.5,10.2
					c0,6.5,3.7,9.9,8.7,9.9c5.3,0,9.1-3.5,9.1-3.5l3.6,7.7c0,0-4,4.5-13.5,4.5c-12.4,0-19.9-8-19.9-17.9
					C320.3,56.3,328.5,47.1,340.4,47.1z"/>
				<path id="XMLID_2331_" fill="#FFFFFF" d="M359.3,28.7l11.8-6.6v37.4h1.3l10.3-11.4h14.8l-15,15.5l15.2,20.1h-14.3L372.3,68h-1.2
					v15.6h-11.8V28.7z"/>
			</g>
		</g>
	</g>
</g>
</svg>
